<?xml version="1.0" encoding="utf-8"?>
<!-- Generator: Adobe Illustrator 26.2.1, SVG Export Plug-In . SVG Version: 6.00 Build 0)  -->
<svg version="1.1" id="Layer_1" xmlns="http://www.w3.org/2000/svg" xmlns:xlink="http://www.w3.org/1999/xlink" x="0px" y="0px"
	 viewBox="0 0 500 500" style="enable-background:new 0 0 500 500;" xml:space="preserve">
<style type="text/css">
	.st0{fill:#FFFFFF;}
</style>
<g>
	<path d="M72.51,480.5c-29.23,0-53.01-23.78-53.01-53.01V72.51c0-29.23,23.78-53.01,53.01-53.01h354.97
		c29.23,0,53.01,23.78,53.01,53.01v354.97c0,29.23-23.78,53.01-53.01,53.01H72.51z"/>
	<path class="st0" d="M427.49,39C445.97,39,461,54.03,461,72.51v354.97c0,18.48-15.03,33.51-33.51,33.51H72.51
		C54.03,461,39,445.97,39,427.49V72.51C39,54.03,54.03,39,72.51,39H427.49 M427.49,0H72.51C32.47,0,0,32.47,0,72.51v354.97
		C0,467.53,32.47,500,72.51,500h354.97c40.05,0,72.51-32.47,72.51-72.51V72.51C500,32.47,467.53,0,427.49,0L427.49,0z"/>
</g>
<path class="st0" d="M189.96,376.47c-18.9-5.75-33.84-13.38-44.85-22.9l16.88-37.9c10.76,8.51,23.96,15.45,39.6,20.83
	c15.63,5.39,31.33,8.07,47.09,8.07c19.52,0,34.09-3.12,43.72-9.39c9.62-6.25,14.44-14.51,14.44-24.77c0-7.51-2.68-13.7-8.06-18.57
	c-5.39-4.88-12.2-8.69-20.45-11.45c-8.26-2.75-19.52-5.87-33.78-9.39c-20.02-4.75-36.21-9.5-48.6-14.26
	c-12.38-4.75-23.02-12.19-31.9-22.32c-8.88-10.13-13.32-23.83-13.32-41.09c0-14.51,3.94-27.71,11.82-39.6
	c7.88-11.88,19.76-21.32,35.65-28.33c15.89-7,35.33-10.51,58.36-10.51c16.01,0,31.76,2.01,47.28,6.01
	c15.5,4.01,28.9,9.76,40.15,17.26l-15.39,37.9c-11.5-6.76-23.52-11.88-36.02-15.38c-12.52-3.51-24.65-5.26-36.41-5.26
	c-19.26,0-33.58,3.26-42.97,9.76c-9.39,6.51-14.07,15.14-14.07,25.89c0,7.51,2.68,13.64,8.06,18.39c5.38,4.76,12.2,8.51,20.46,11.26
	c8.25,2.76,19.51,5.89,33.77,9.39c19.51,4.5,35.53,9.19,48.03,14.07c12.51,4.88,23.21,12.33,32.09,22.33
	c8.88,10.01,13.32,23.52,13.32,40.53c0,14.52-3.94,27.65-11.82,39.41c-7.88,11.77-19.83,21.14-35.84,28.15
	c-16.01,7-35.53,10.51-58.55,10.51C228.42,385.1,208.84,382.23,189.96,376.47z"/>
</svg>
