<?xml version="1.0" encoding="utf-8"?>
<!-- Generator: Adobe Illustrator 26.2.1, SVG Export Plug-In . SVG Version: 6.00 Build 0)  -->
<svg version="1.1" id="Layer_1" xmlns="http://www.w3.org/2000/svg" xmlns:xlink="http://www.w3.org/1999/xlink" x="0px" y="0px"
	 viewBox="0 0 330 230" style="enable-background:new 0 0 330 230;" xml:space="preserve">
<style type="text/css">
	.st0{fill:#282828;}
</style>
<g>
	<path class="st0" d="M195.61,89.94c-37.53,4.32-76.79,7.27-114.57,9.82c0,0-3.41,0.24-3.41,0.24l-2.54-3.19
		C50.07,65.48,25.14,32.4,0.78,0.45c0,0,28.04,7.07,28.04,7.07C94.9,24.04,160.69,41.75,226.08,60.83
		c-0.98,40.71,4.45,83.04,29.47,116.41c18.38,24.8,44.79,41.34,73.67,52.31c-19.71-3.66-39.62-10.66-56.76-21.97
		c-48.02-30.77-65.62-84.54-66.74-139.13c0,0,7.55,9.82,7.55,9.82c-47.68-11.94-95.18-24.6-142.5-37.89
		C54.98,36,39.25,31.42,23.5,26.89l10.79-15.58c17.69,25.55,35.27,51.17,52.37,77.12c0,0-5.95-2.95-5.95-2.95
		C118.61,86.28,157.89,87.37,195.61,89.94L195.61,89.94z"/>
	<path class="st0" d="M195.68,101.27c-29.71,8.47-60.18,13.8-90.7,18.21c0,0,3.55-10.28,3.55-10.28
		c6.03,6.06,12.62,12.91,18.51,19.17c2.04,2.15,4.06,4.31,6.06,6.5l-6.31-1.3c16.99-6.48,34.21-12.49,51.67-17.68
		c5.83-1.76,11.71-3.37,17.67-4.81c-5.23,3.19-10.54,6.21-15.9,9.09c-17.1,9.27-34.67,17.65-52.42,25.54
		c-9.42-9.01-18.96-18.6-27.98-28c0,0-8.41-8.8-8.41-8.8C125.95,104.51,160.79,100.8,195.68,101.27L195.68,101.27z"/>
	<path class="st0" d="M198.63,123.38c-11.85,13.49-25.85,24.8-40.29,35.3c0,0-1.57-10.76-1.57-10.76
		c9.28,2.86,18.44,6.08,27.46,9.74l-6.32,2.45c3.35-5.06,6.86-10.03,10.58-14.88c3.77-4.89,7.66-9.63,12.01-14.07
		c-1.58,6-3.66,11.79-5.92,17.52c-2.72,6.9-5.86,13.67-9.08,20.32c-14.74-3.47-29.87-8.5-44.16-13.57
		C159.41,143.22,178.1,131.09,198.63,123.38L198.63,123.38z"/>
</g>
</svg>
